<mxfile host="app.diagrams.net" modified="2024-03-02T10:08:31.293Z" agent="Mozilla/5.0 (Windows NT 10.0; Win64; x64; rv:123.0) Gecko/20100101 Firefox/123.0" etag="7-mdDOQyi4h5vT7WO1SA" version="24.0.0" type="device">
  <diagram name="Page-1" id="LPkqd591wQ85U-48jlPK">
    <mxGraphModel dx="1984" dy="706" grid="1" gridSize="10" guides="1" tooltips="1" connect="1" arrows="1" fold="1" page="1" pageScale="1" pageWidth="850" pageHeight="1100" math="0" shadow="0">
      <root>
        <mxCell id="0" />
        <mxCell id="1" parent="0" />
        <mxCell id="II0VG81Jx7Dy573jg7az-2" value="Activity" style="swimlane;whiteSpace=wrap;html=1;" vertex="1" parent="1">
          <mxGeometry x="120" y="20" width="200" height="100" as="geometry" />
        </mxCell>
        <mxCell id="II0VG81Jx7Dy573jg7az-26" value="&lt;div&gt;int etcsPoints&lt;/div&gt;&lt;div&gt;String name&lt;br&gt;&lt;/div&gt;" style="text;html=1;align=center;verticalAlign=middle;resizable=0;points=[];autosize=1;strokeColor=none;fillColor=none;" vertex="1" parent="II0VG81Jx7Dy573jg7az-2">
          <mxGeometry x="55" y="30" width="90" height="40" as="geometry" />
        </mxCell>
        <mxCell id="II0VG81Jx7Dy573jg7az-15" style="edgeStyle=orthogonalEdgeStyle;rounded=0;orthogonalLoop=1;jettySize=auto;html=1;exitX=0.5;exitY=0;exitDx=0;exitDy=0;entryX=0;entryY=0.5;entryDx=0;entryDy=0;endArrow=block;endFill=1;endSize=20;" edge="1" parent="1" source="II0VG81Jx7Dy573jg7az-3" target="II0VG81Jx7Dy573jg7az-2">
          <mxGeometry relative="1" as="geometry">
            <Array as="points">
              <mxPoint x="-20" y="70" />
            </Array>
          </mxGeometry>
        </mxCell>
        <mxCell id="II0VG81Jx7Dy573jg7az-3" value="Course" style="swimlane;whiteSpace=wrap;html=1;" vertex="1" parent="1">
          <mxGeometry x="-120" y="300" width="200" height="90" as="geometry" />
        </mxCell>
        <mxCell id="II0VG81Jx7Dy573jg7az-27" value="enum type" style="text;html=1;align=center;verticalAlign=middle;resizable=0;points=[];autosize=1;strokeColor=none;fillColor=none;" vertex="1" parent="II0VG81Jx7Dy573jg7az-3">
          <mxGeometry x="60" y="38" width="80" height="30" as="geometry" />
        </mxCell>
        <mxCell id="II0VG81Jx7Dy573jg7az-16" style="edgeStyle=orthogonalEdgeStyle;rounded=0;orthogonalLoop=1;jettySize=auto;html=1;exitX=0.5;exitY=0;exitDx=0;exitDy=0;entryX=1;entryY=0.5;entryDx=0;entryDy=0;endSize=20;" edge="1" parent="1" source="II0VG81Jx7Dy573jg7az-4" target="II0VG81Jx7Dy573jg7az-2">
          <mxGeometry relative="1" as="geometry" />
        </mxCell>
        <mxCell id="II0VG81Jx7Dy573jg7az-4" value="Project" style="swimlane;whiteSpace=wrap;html=1;" vertex="1" parent="1">
          <mxGeometry x="380" y="300" width="200" height="90" as="geometry" />
        </mxCell>
        <mxCell id="II0VG81Jx7Dy573jg7az-28" value="enum type" style="text;html=1;align=center;verticalAlign=middle;resizable=0;points=[];autosize=1;strokeColor=none;fillColor=none;" vertex="1" parent="II0VG81Jx7Dy573jg7az-4">
          <mxGeometry x="60" y="38" width="80" height="30" as="geometry" />
        </mxCell>
        <mxCell id="II0VG81Jx7Dy573jg7az-13" style="edgeStyle=orthogonalEdgeStyle;rounded=0;orthogonalLoop=1;jettySize=auto;html=1;exitX=0.25;exitY=0;exitDx=0;exitDy=0;entryX=0;entryY=0.5;entryDx=0;entryDy=0;endArrow=block;endFill=1;endSize=20;" edge="1" parent="1" source="II0VG81Jx7Dy573jg7az-5" target="II0VG81Jx7Dy573jg7az-3">
          <mxGeometry relative="1" as="geometry" />
        </mxCell>
        <mxCell id="II0VG81Jx7Dy573jg7az-5" value="BasicCourse" style="swimlane;whiteSpace=wrap;html=1;" vertex="1" parent="1">
          <mxGeometry x="-230" y="420" width="200" height="110" as="geometry" />
        </mxCell>
        <mxCell id="II0VG81Jx7Dy573jg7az-14" style="edgeStyle=orthogonalEdgeStyle;rounded=0;orthogonalLoop=1;jettySize=auto;html=1;exitX=0.75;exitY=0;exitDx=0;exitDy=0;entryX=1;entryY=0.5;entryDx=0;entryDy=0;endArrow=block;endFill=1;endSize=20;" edge="1" parent="1" source="II0VG81Jx7Dy573jg7az-6" target="II0VG81Jx7Dy573jg7az-3">
          <mxGeometry relative="1" as="geometry" />
        </mxCell>
        <mxCell id="II0VG81Jx7Dy573jg7az-6" value="SubjectModuleCourse" style="swimlane;whiteSpace=wrap;html=1;" vertex="1" parent="1">
          <mxGeometry y="420" width="200" height="110" as="geometry" />
        </mxCell>
        <mxCell id="II0VG81Jx7Dy573jg7az-21" style="edgeStyle=orthogonalEdgeStyle;rounded=0;orthogonalLoop=1;jettySize=auto;html=1;exitX=0.5;exitY=0;exitDx=0;exitDy=0;entryX=0;entryY=0.5;entryDx=0;entryDy=0;endArrow=block;endFill=1;endSize=20;" edge="1" parent="1" source="II0VG81Jx7Dy573jg7az-8" target="II0VG81Jx7Dy573jg7az-4">
          <mxGeometry relative="1" as="geometry" />
        </mxCell>
        <mxCell id="II0VG81Jx7Dy573jg7az-8" value="BasicProject" style="swimlane;whiteSpace=wrap;html=1;" vertex="1" parent="1">
          <mxGeometry x="230" y="420" width="200" height="110" as="geometry" />
        </mxCell>
        <mxCell id="II0VG81Jx7Dy573jg7az-20" style="edgeStyle=orthogonalEdgeStyle;rounded=0;orthogonalLoop=1;jettySize=auto;html=1;exitX=0.5;exitY=0;exitDx=0;exitDy=0;entryX=1;entryY=0.5;entryDx=0;entryDy=0;endArrow=block;endFill=1;endSize=20;" edge="1" parent="1" source="II0VG81Jx7Dy573jg7az-9" target="II0VG81Jx7Dy573jg7az-4">
          <mxGeometry relative="1" as="geometry" />
        </mxCell>
        <mxCell id="II0VG81Jx7Dy573jg7az-9" value="SubjectModuleProject" style="swimlane;whiteSpace=wrap;html=1;" vertex="1" parent="1">
          <mxGeometry x="530" y="420" width="200" height="110" as="geometry" />
        </mxCell>
        <mxCell id="II0VG81Jx7Dy573jg7az-18" style="edgeStyle=orthogonalEdgeStyle;rounded=0;orthogonalLoop=1;jettySize=auto;html=1;exitX=0.5;exitY=0;exitDx=0;exitDy=0;entryX=0.5;entryY=1;entryDx=0;entryDy=0;endArrow=block;endFill=1;endSize=20;" edge="1" parent="1" source="II0VG81Jx7Dy573jg7az-10" target="II0VG81Jx7Dy573jg7az-4">
          <mxGeometry relative="1" as="geometry" />
        </mxCell>
        <mxCell id="II0VG81Jx7Dy573jg7az-10" value="BachelorProject" style="swimlane;whiteSpace=wrap;html=1;" vertex="1" parent="1">
          <mxGeometry x="380" y="565" width="200" height="110" as="geometry" />
        </mxCell>
        <mxCell id="II0VG81Jx7Dy573jg7az-22" style="edgeStyle=orthogonalEdgeStyle;rounded=0;orthogonalLoop=1;jettySize=auto;html=1;exitX=0;exitY=0.5;exitDx=0;exitDy=0;entryX=0.75;entryY=0;entryDx=0;entryDy=0;endArrow=diamondThin;endFill=0;endSize=20;" edge="1" parent="1" source="II0VG81Jx7Dy573jg7az-11" target="II0VG81Jx7Dy573jg7az-3">
          <mxGeometry relative="1" as="geometry" />
        </mxCell>
        <mxCell id="II0VG81Jx7Dy573jg7az-23" style="edgeStyle=orthogonalEdgeStyle;rounded=0;orthogonalLoop=1;jettySize=auto;html=1;exitX=1;exitY=0.5;exitDx=0;exitDy=0;entryX=0.25;entryY=0;entryDx=0;entryDy=0;endArrow=diamondThin;endFill=0;endSize=20;" edge="1" parent="1" source="II0VG81Jx7Dy573jg7az-11" target="II0VG81Jx7Dy573jg7az-4">
          <mxGeometry relative="1" as="geometry" />
        </mxCell>
        <mxCell id="II0VG81Jx7Dy573jg7az-11" value="BachelorProgramme" style="swimlane;whiteSpace=wrap;html=1;" vertex="1" parent="1">
          <mxGeometry x="120" y="170" width="200" height="110" as="geometry" />
        </mxCell>
        <mxCell id="II0VG81Jx7Dy573jg7az-24" value="&lt;div&gt;valid( )&lt;/div&gt;&lt;div&gt;addActivity( )&lt;br&gt;&lt;/div&gt;&lt;div&gt;&lt;br&gt;&lt;/div&gt;&lt;div&gt;ArrayList&amp;lt;Course&amp;gt; courses&lt;/div&gt;&lt;div&gt;ArrayList&amp;lt;Projects&amp;gt; projects&lt;br&gt;&lt;/div&gt;" style="text;html=1;align=center;verticalAlign=middle;resizable=0;points=[];autosize=1;strokeColor=none;fillColor=none;" vertex="1" parent="II0VG81Jx7Dy573jg7az-11">
          <mxGeometry x="15" y="20" width="170" height="90" as="geometry" />
        </mxCell>
      </root>
    </mxGraphModel>
  </diagram>
</mxfile>
